# Blender 3.5.1
# www.blender.org
mtllib boat.mtl
o Cube
v 0.029830 -1.000000 3.212351
v -0.332040 0.360377 3.291909
v -0.024849 -1.000000 -3.212351
v -0.378076 0.360377 -3.341742
v -0.035299 -1.000000 3.212351
v 0.332040 0.360377 3.291909
v 0.019380 -1.000000 -3.212351
v 0.378076 0.360377 -3.341742
v -0.371479 -1.000000 -2.294536
v -0.496630 -1.000000 -1.376722
v -0.565294 -1.000000 -0.458907
v -0.550806 -1.000000 0.458907
v -0.498176 -1.000000 1.376722
v -0.374566 -1.000000 2.294536
v -0.674650 0.360377 2.027398
v -0.781812 0.360377 1.231713
v -0.829432 0.360377 0.401267
v -0.842280 0.360377 -0.412648
v -0.782007 0.360377 -1.218290
v -0.668939 0.360377 -2.047497
v 0.369097 -1.000000 2.294536
v 0.492707 -1.000000 1.376722
v 0.545337 -1.000000 0.458907
v 0.559825 -1.000000 -0.458907
v 0.491161 -1.000000 -1.376722
v 0.366010 -1.000000 -2.294536
v 0.668939 0.360377 -2.047497
v 0.782007 0.360377 -1.218290
v 0.842280 0.360377 -0.412648
v 0.829432 0.360377 0.401267
v 0.781812 0.360377 1.231713
v 0.674650 0.360377 2.027398
v -0.402233 -0.333333 3.561181
v -0.402233 -0.306290 3.561181
v -0.456912 -0.306290 -3.704035
v -0.456912 -0.333333 -3.704035
v 0.456912 -0.306290 -3.704035
v 0.456912 -0.333333 -3.704035
v 0.402233 -0.306290 3.561181
v 0.402233 -0.333333 3.561181
v 0.803542 -0.306290 -2.294536
v 0.803542 -0.333333 -2.294536
v 0.928693 -0.306290 -1.376722
v 0.928693 -0.333333 -1.376722
v 0.997357 -0.306290 -0.458907
v 0.997357 -0.333333 -0.458907
v 0.982869 -0.306290 0.458907
v 0.982869 -0.333333 0.458907
v 0.930239 -0.306290 1.376722
v 0.930239 -0.333333 1.376722
v 0.806629 -0.306290 2.294536
v 0.806629 -0.333333 2.294536
v -0.806629 -0.306290 2.294536
v -0.806629 -0.333333 2.294536
v -0.930239 -0.306290 1.376722
v -0.930239 -0.333333 1.376722
v -0.982869 -0.306290 0.458907
v -0.982869 -0.333333 0.458907
v -0.997357 -0.306290 -0.458907
v -0.997357 -0.333333 -0.458907
v -0.928693 -0.306290 -1.376722
v -0.928693 -0.333333 -1.376722
v -0.803542 -0.306290 -2.294536
v -0.803542 -0.333333 -2.294536
v -0.803542 0.360377 -2.294536
v -0.456912 0.360377 -3.836923
v 0.456912 0.360377 -3.836923
v 0.806629 0.360377 2.294536
v 0.402233 0.360377 3.787090
v -0.402233 0.360377 3.787090
v -0.806629 0.360377 2.294536
v -0.930239 0.360377 1.376722
v -0.982869 0.360377 0.458907
v -0.997357 0.360377 -0.458907
v -0.928693 0.360377 -1.376722
v 0.803542 0.360377 -2.294536
v 0.928693 0.360377 -1.376722
v 0.997357 0.360377 -0.458907
v 0.982869 0.360377 0.458907
v 0.930239 0.360377 1.376722
v -0.668939 0.022668 -2.047497
v 0.668939 0.022668 -2.047497
v -0.782007 0.022668 -1.218290
v 0.782007 0.022668 -1.218290
v -0.842280 0.022668 -0.412648
v 0.842280 0.022668 -0.412648
v -0.829432 0.022668 0.401267
v 0.829432 0.022668 0.401267
v -0.781812 0.022668 1.231713
v 0.781812 0.022668 1.231713
v -0.674650 0.022668 2.027398
v 0.674650 0.022668 2.027398
v -0.378076 0.022668 -3.341742
v 0.378076 0.022668 -3.341742
v 0.332040 0.022668 3.291909
v -0.332040 0.022668 3.291909
vn -0.9733 -0.0228 -0.2286
vn -0.0000 -0.1955 -0.9807
vn 0.9585 -0.0476 0.2810
vn -0.0000 -0.3209 0.9471
vn -0.0000 -1.0000 -0.0000
vn 0.9757 -0.0000 0.2193
vn 0.9999 -0.0000 -0.0158
vn -0.9984 -0.0000 -0.0572
vn 0.9984 -0.0000 -0.0572
vn -0.9999 -0.0000 -0.0158
vn 0.9911 -0.0000 -0.1335
vn -0.9972 -0.0000 0.0746
vn 0.9733 -0.0228 -0.2286
vn 0.9908 -0.0000 -0.1351
vn 0.9972 -0.0000 -0.0746
vn 0.9999 -0.0000 0.0158
vn 0.9984 -0.0000 0.0572
vn 0.9911 -0.0000 0.1335
vn -0.9585 -0.0476 0.2810
vn -0.9911 -0.0000 0.1335
vn -0.9984 -0.0000 0.0572
vn -0.9999 -0.0000 0.0158
vn -0.9972 -0.0000 -0.0746
vn -0.9908 -0.0000 -0.1351
vn -0.8337 -0.5403 -0.1137
vn -0.8375 -0.5428 -0.0627
vn -0.8391 -0.5438 0.0132
vn -0.8382 -0.5432 0.0481
vn -0.8339 -0.5404 0.1123
vn -0.7688 -0.5727 0.2846
vn -0.9526 -0.0000 0.3041
vn 0.8308 -0.5452 0.1119
vn 0.8351 -0.5481 0.0479
vn 0.8360 -0.5486 0.0132
vn 0.8344 -0.5476 -0.0624
vn 0.8306 -0.5452 -0.1133
vn 0.7725 -0.5918 -0.2301
vn 0.9711 -0.0000 -0.2388
vn -0.0000 -0.4636 0.8860
vn -0.0000 -0.0000 1.0000
vn 0.7660 -0.5769 0.2836
vn 0.9526 -0.0000 0.3041
vn -0.0000 -0.5936 -0.8048
vn -0.0000 -0.0000 -1.0000
vn -0.7754 -0.5877 -0.2310
vn -0.9711 -0.0000 -0.2388
vn -0.0000 1.0000 -0.0000
vn -0.9911 -0.0000 -0.1335
vn 0.9972 -0.0000 0.0746
vn 0.9908 -0.0000 0.1351
vn -0.9652 -0.0000 -0.2615
vn -0.9757 -0.0000 0.2193
vn -0.9908 -0.0000 0.1351
vn 0.9652 -0.0000 -0.2615
vt 0.125000 0.750000
vt 0.375000 0.000000
vt 0.375000 1.000000
vt 0.833088 0.738151
vt 0.125000 0.500000
vt 0.375000 0.250000
vt 0.837225 0.511466
vt 0.375000 0.750000
vt 0.666912 0.738151
vt 0.375000 0.500000
vt 0.662775 0.511466
vt 0.125000 0.535714
vt 0.375000 0.214286
vt 0.125000 0.571429
vt 0.375000 0.178571
vt 0.125000 0.607143
vt 0.375000 0.142857
vt 0.125000 0.642857
vt 0.375000 0.107143
vt 0.125000 0.678571
vt 0.375000 0.071429
vt 0.125000 0.714286
vt 0.375000 0.035714
vt 0.850521 0.703891
vt 0.854203 0.672929
vt 0.855396 0.640614
vt 0.855220 0.608943
vt 0.853012 0.577593
vt 0.850317 0.545327
vt 0.375000 0.714286
vt 0.375000 0.678571
vt 0.375000 0.642857
vt 0.375000 0.607143
vt 0.375000 0.571429
vt 0.375000 0.535714
vt 0.649683 0.545327
vt 0.645951 0.577593
vt 0.644364 0.608943
vt 0.644842 0.640614
vt 0.646979 0.672929
vt 0.649479 0.703891
vt 0.458333 0.000000
vt 0.458333 1.000000
vt 0.541667 0.000000
vt 0.541667 1.000000
vt 0.541667 0.250000
vt 0.458333 0.250000
vt 0.541667 0.500000
vt 0.458333 0.500000
vt 0.541667 0.750000
vt 0.458333 0.750000
vt 0.541667 0.535714
vt 0.458333 0.535714
vt 0.541667 0.571429
vt 0.458333 0.571429
vt 0.541667 0.607143
vt 0.458333 0.607143
vt 0.541667 0.642857
vt 0.458333 0.642857
vt 0.541667 0.678571
vt 0.458333 0.678571
vt 0.541667 0.714286
vt 0.458333 0.714286
vt 0.541667 0.035714
vt 0.458333 0.035714
vt 0.541667 0.071429
vt 0.458333 0.071429
vt 0.541667 0.107143
vt 0.458333 0.107143
vt 0.541667 0.142857
vt 0.458333 0.142857
vt 0.541667 0.178571
vt 0.458333 0.178571
vt 0.541667 0.214286
vt 0.458333 0.214286
vt 0.625000 0.214286
vt 0.875000 0.535714
vt 0.625000 0.250000
vt 0.875000 0.500000
vt 0.625000 0.500000
vt 0.625000 0.714286
vt 0.625000 0.750000
vt 0.625000 1.000000
vt 0.625000 0.000000
vt 0.875000 0.750000
vt 0.625000 0.035714
vt 0.875000 0.714286
vt 0.625000 0.071429
vt 0.875000 0.678571
vt 0.625000 0.107143
vt 0.875000 0.642857
vt 0.625000 0.142857
vt 0.875000 0.607143
vt 0.625000 0.178571
vt 0.875000 0.571429
vt 0.625000 0.535714
vt 0.625000 0.571429
vt 0.625000 0.607143
vt 0.625000 0.642857
vt 0.625000 0.678571
vt 0.850317 0.545327
vt 0.649683 0.545327
vt 0.853012 0.577593
vt 0.645951 0.577593
vt 0.855220 0.608943
vt 0.644364 0.608943
vt 0.855396 0.640614
vt 0.644842 0.640614
vt 0.854203 0.672929
vt 0.646979 0.672929
vt 0.850521 0.703891
vt 0.649479 0.703891
vt 0.837225 0.511466
vt 0.662775 0.511466
vt 0.666912 0.738151
vt 0.833088 0.738151
s 0
f 63/74/1 65/76/1 66/78/1 35/46/1
f 35/46/2 66/78/2 67/80/2 37/48/2
f 51/62/3 68/81/3 69/82/3 39/50/3
f 39/50/4 69/82/4 70/83/4 34/45/4
f 14/22/5 21/30/5 5/8/5 1/1/5
f 4/7/6 20/29/6 81/101/6 93/113/6
f 18/27/7 17/26/7 87/107/7 85/105/7
f 31/40/8 30/39/8 88/108/8 90/110/8
f 17/26/9 16/25/9 89/109/9 87/107/9
f 30/39/10 29/38/10 86/106/10 88/108/10
f 16/25/11 15/24/11 91/111/11 89/109/11
f 29/38/12 28/37/12 84/104/12 86/106/12
f 3/5/5 7/10/5 26/35/5 9/12/5
f 9/12/5 26/35/5 25/34/5 10/14/5
f 10/14/5 25/34/5 24/33/5 11/16/5
f 11/16/5 24/33/5 23/32/5 12/18/5
f 12/18/5 23/32/5 22/31/5 13/20/5
f 13/20/5 22/31/5 21/30/5 14/22/5
f 37/48/13 67/80/13 76/96/13 41/52/13
f 41/52/14 76/96/14 77/97/14 43/54/14
f 43/54/15 77/97/15 78/98/15 45/56/15
f 45/56/16 78/98/16 79/99/16 47/58/16
f 47/58/17 79/99/17 80/100/17 49/60/17
f 49/60/18 80/100/18 68/81/18 51/62/18
f 34/44/19 70/84/19 71/86/19 53/64/19
f 53/64/20 71/86/20 72/88/20 55/66/20
f 55/66/21 72/88/21 73/90/21 57/68/21
f 57/68/22 73/90/22 74/92/22 59/70/22
f 59/70/23 74/92/23 75/94/23 61/72/23
f 61/72/24 75/94/24 65/76/24 63/74/24
f 10/15/25 62/73/25 64/75/25 9/13/25
f 62/73/24 61/72/24 63/74/24 64/75/24
f 11/17/26 60/71/26 62/73/26 10/15/26
f 60/71/23 59/70/23 61/72/23 62/73/23
f 12/19/27 58/69/27 60/71/27 11/17/27
f 58/69/22 57/68/22 59/70/22 60/71/22
f 13/21/28 56/67/28 58/69/28 12/19/28
f 56/67/21 55/66/21 57/68/21 58/69/21
f 14/23/29 54/65/29 56/67/29 13/21/29
f 54/65/20 53/64/20 55/66/20 56/67/20
f 1/2/30 33/42/30 54/65/30 14/23/30
f 33/42/31 34/44/31 53/64/31 54/65/31
f 22/31/32 50/61/32 52/63/32 21/30/32
f 50/61/18 49/60/18 51/62/18 52/63/18
f 23/32/33 48/59/33 50/61/33 22/31/33
f 48/59/17 47/58/17 49/60/17 50/61/17
f 24/33/34 46/57/34 48/59/34 23/32/34
f 46/57/16 45/56/16 47/58/16 48/59/16
f 25/34/35 44/55/35 46/57/35 24/33/35
f 44/55/15 43/54/15 45/56/15 46/57/15
f 26/35/36 42/53/36 44/55/36 25/34/36
f 42/53/14 41/52/14 43/54/14 44/55/14
f 7/10/37 38/49/37 42/53/37 26/35/37
f 38/49/38 37/48/38 41/52/38 42/53/38
f 5/8/39 40/51/39 33/43/39 1/3/39
f 40/51/40 39/50/40 34/45/40 33/43/40
f 21/30/41 52/63/41 40/51/41 5/8/41
f 52/63/42 51/62/42 39/50/42 40/51/42
f 3/6/43 36/47/43 38/49/43 7/10/43
f 36/47/44 35/46/44 37/48/44 38/49/44
f 9/13/45 64/75/45 36/47/45 3/6/45
f 64/75/46 63/74/46 35/46/46 36/47/46
f 20/29/47 4/7/47 66/79/47 65/77/47
f 4/7/47 8/11/47 67/80/47 66/79/47
f 32/41/47 6/9/47 69/82/47 68/81/47
f 6/9/47 2/4/47 70/85/47 69/82/47
f 2/4/47 15/24/47 71/87/47 70/85/47
f 15/24/47 16/25/47 72/89/47 71/87/47
f 16/25/47 17/26/47 73/91/47 72/89/47
f 17/26/47 18/27/47 74/93/47 73/91/47
f 18/27/47 19/28/47 75/95/47 74/93/47
f 19/28/47 20/29/47 65/77/47 75/95/47
f 8/11/47 27/36/47 76/96/47 67/80/47
f 27/36/47 28/37/47 77/97/47 76/96/47
f 28/37/47 29/38/47 78/98/47 77/97/47
f 29/38/47 30/39/47 79/99/47 78/98/47
f 30/39/47 31/40/47 80/100/47 79/99/47
f 31/40/47 32/41/47 68/81/47 80/100/47
f 92/112/47 91/111/47 96/116/47 95/115/47
f 94/114/47 93/113/47 81/101/47 82/102/47
f 82/102/47 81/101/47 83/103/47 84/104/47
f 84/104/47 83/103/47 85/105/47 86/106/47
f 86/106/47 85/105/47 87/107/47 88/108/47
f 88/108/47 87/107/47 89/109/47 90/110/47
f 90/110/47 89/109/47 91/111/47 92/112/47
f 32/41/48 31/40/48 90/110/48 92/112/48
f 19/28/49 18/27/49 85/105/49 83/103/49
f 8/11/40 4/7/40 93/113/40 94/114/40
f 20/29/50 19/28/50 83/103/50 81/101/50
f 6/9/51 32/41/51 92/112/51 95/115/51
f 27/36/52 8/11/52 94/114/52 82/102/52
f 2/4/44 6/9/44 95/115/44 96/116/44
f 28/37/53 27/36/53 82/102/53 84/104/53
f 15/24/54 2/4/54 96/116/54 91/111/54
